<svg width="16" height="16" viewBox="0 0 16 16" fill="none" xmlns="http://www.w3.org/2000/svg">
<path d="M4.63889 3.86111V0.75M10.8611 3.86111V0.75M3.86111 6.97222H11.6389M2.30556 14.75H13.1944C13.607 14.75 14.0027 14.5861 14.2944 14.2944C14.5861 14.0027 14.75 13.607 14.75 13.1944V3.86111C14.75 3.44855 14.5861 3.05289 14.2944 2.76117C14.0027 2.46944 13.607 2.30556 13.1944 2.30556H2.30556C1.893 2.30556 1.49733 2.46944 1.20561 2.76117C0.913888 3.05289 0.75 3.44855 0.75 3.86111V13.1944C0.75 13.607 0.913888 14.0027 1.20561 14.2944C1.49733 14.5861 1.893 14.75 2.30556 14.75Z" stroke="#626264" stroke-width="1.5" stroke-linecap="round" stroke-linejoin="round"/>
</svg>
