<svg width="24" height="24" viewBox="0 0 24 24" fill="none" xmlns="http://www.w3.org/2000/svg">
<path d="M10.803 2.92737C11.1407 2.651 11.5636 2.5 12 2.5C12.4364 2.5 12.8593 2.651 13.197 2.92737L19.7845 8.29837C20.0087 8.48214 20.1891 8.71345 20.3129 8.97556C20.4366 9.23767 20.5005 9.52402 20.5 9.81387V19.5564C20.5 20.6299 19.644 21.4999 18.5875 21.4999H15.9125C14.856 21.4999 14 20.6299 14 19.5564V14.9434C14 14.5854 13.715 14.2954 13.3625 14.2954H10.6375C10.2855 14.2954 10 14.5854 10 14.9434V19.5564C10 20.6299 9.144 21.4999 8.0875 21.4999H5.4125C4.3565 21.4999 3.5 20.6299 3.5 19.5564V9.81387C3.49946 9.52402 3.56338 9.23767 3.68713 8.97556C3.81087 8.71345 3.99135 8.48214 4.2155 8.29837L10.803 2.92737ZM12.399 3.93787C12.2864 3.84575 12.1455 3.79541 12 3.79541C11.8545 3.79541 11.7136 3.84575 11.601 3.93787L5.0135 9.30837C4.93865 9.36958 4.8784 9.44672 4.83714 9.53417C4.79588 9.62162 4.77466 9.71718 4.775 9.81387V19.5564C4.775 19.9144 5.06 20.2044 5.4125 20.2044H8.0875C8.4395 20.2044 8.725 19.9144 8.725 19.5564V14.9434C8.725 13.8699 9.5815 12.9999 10.6375 12.9999H13.3625C14.4185 12.9999 15.275 13.8699 15.275 14.9434V19.5564C15.275 19.9144 15.56 20.2044 15.9125 20.2044H18.5875C18.9395 20.2044 19.225 19.9144 19.225 19.5564V9.81387C19.2253 9.71726 19.204 9.6218 19.1628 9.53445C19.1215 9.44709 19.0613 9.37003 18.9865 9.30887L12.399 3.93787Z" fill="#38090D"/>
</svg>
