<svg width="24" height="24" viewBox="0 0 24 24" fill="none" xmlns="http://www.w3.org/2000/svg">
<path d="M11.1387 8.63883C11.2638 8.51365 11.3342 8.34386 11.3342 8.16683C11.3342 7.9898 11.2638 7.82001 11.1387 7.69483C11.0135 7.56965 10.8437 7.49932 10.6667 7.49932C10.4896 7.49932 10.3198 7.56965 10.1947 7.69483L8.312 9.5775L7.78267 9.09483C7.65115 8.98241 7.48107 8.92553 7.30838 8.93621C7.1357 8.94688 6.97392 9.02427 6.85725 9.15203C6.74057 9.27978 6.67813 9.4479 6.68312 9.62084C6.68811 9.79379 6.76015 9.95802 6.884 10.0788L7.884 10.9922C8.01071 11.1075 8.17696 11.1697 8.34827 11.1657C8.51958 11.1617 8.68278 11.0919 8.804 10.9708L11.1387 8.63883ZM11.1387 14.3615C11.2008 14.4234 11.25 14.497 11.2836 14.578C11.3172 14.659 11.3345 14.7458 11.3345 14.8335C11.3345 14.9212 11.3172 15.008 11.2836 15.089C11.25 15.17 11.2008 15.2436 11.1387 15.3055L8.80533 17.6388C8.68388 17.7601 8.5203 17.8299 8.34868 17.8337C8.17705 17.8374 8.01061 17.7748 7.884 17.6588L6.884 16.7455C6.76015 16.6247 6.68811 16.4605 6.68312 16.2875C6.67813 16.1146 6.74057 15.9465 6.85725 15.8187C6.97392 15.6909 7.1357 15.6135 7.30838 15.6029C7.48107 15.5922 7.65115 15.6491 7.78267 15.7615L8.312 16.2455L10.1947 14.3615C10.2566 14.2994 10.3302 14.2502 10.4112 14.2165C10.4921 14.1829 10.579 14.1656 10.6667 14.1656C10.7544 14.1656 10.8412 14.1829 10.9222 14.2165C11.0032 14.2502 11.0767 14.2994 11.1387 14.3615ZM13.3333 15.1668C13.1565 15.1668 12.987 15.2371 12.8619 15.3621C12.7369 15.4871 12.6667 15.6567 12.6667 15.8335C12.6667 16.0103 12.7369 16.1799 12.8619 16.3049C12.987 16.4299 13.1565 16.5002 13.3333 16.5002H16.6667C16.8435 16.5002 17.013 16.4299 17.1381 16.3049C17.2631 16.1799 17.3333 16.0103 17.3333 15.8335C17.3333 15.6567 17.2631 15.4871 17.1381 15.3621C17.013 15.2371 16.8435 15.1668 16.6667 15.1668H13.3333ZM12.6667 9.16683C12.6667 8.99002 12.7369 8.82045 12.8619 8.69543C12.987 8.5704 13.1565 8.50016 13.3333 8.50016H16.6667C16.8435 8.50016 17.013 8.5704 17.1381 8.69543C17.2631 8.82045 17.3333 8.99002 17.3333 9.16683C17.3333 9.34364 17.2631 9.51321 17.1381 9.63824C17.013 9.76326 16.8435 9.8335 16.6667 9.8335H13.3333C13.1565 9.8335 12.987 9.76326 12.8619 9.63824C12.7369 9.51321 12.6667 9.34364 12.6667 9.16683ZM10 0.833496C9.58623 0.833279 9.18258 0.9614 8.84468 1.2002C8.50678 1.439 8.25126 1.77673 8.11333 2.16683H6C5.46957 2.16683 4.96086 2.37754 4.58579 2.75262C4.21071 3.12769 4 3.6364 4 4.16683V20.1668C4 20.6973 4.21071 21.206 4.58579 21.581C4.96086 21.9561 5.46957 22.1668 6 22.1668H18C18.5304 22.1668 19.0391 21.9561 19.4142 21.581C19.7893 21.206 20 20.6973 20 20.1668V4.16683C20 3.6364 19.7893 3.12769 19.4142 2.75262C19.0391 2.37754 18.5304 2.16683 18 2.16683H15.8867C15.7487 1.77673 15.4932 1.439 15.1553 1.2002C14.8174 0.9614 14.4138 0.833279 14 0.833496H10ZM9.33333 2.8335C9.33333 2.65669 9.40357 2.48712 9.52859 2.36209C9.65362 2.23707 9.82319 2.16683 10 2.16683H14C14.1768 2.16683 14.3464 2.23707 14.4714 2.36209C14.5964 2.48712 14.6667 2.65669 14.6667 2.8335C14.6667 3.01031 14.5964 3.17988 14.4714 3.3049C14.3464 3.42993 14.1768 3.50016 14 3.50016H10C9.82319 3.50016 9.65362 3.42993 9.52859 3.3049C9.40357 3.17988 9.33333 3.01031 9.33333 2.8335ZM6 3.50016H8.11333C8.25126 3.89027 8.50678 4.22799 8.84468 4.46679C9.18258 4.70559 9.58623 4.83371 10 4.8335H14C14.4138 4.83371 14.8174 4.70559 15.1553 4.46679C15.4932 4.22799 15.7487 3.89027 15.8867 3.50016H18C18.1768 3.50016 18.3464 3.5704 18.4714 3.69543C18.5964 3.82045 18.6667 3.99002 18.6667 4.16683V20.1668C18.6667 20.3436 18.5964 20.5132 18.4714 20.6382C18.3464 20.7633 18.1768 20.8335 18 20.8335H6C5.82319 20.8335 5.65362 20.7633 5.5286 20.6382C5.40357 20.5132 5.33333 20.3436 5.33333 20.1668V4.16683C5.33333 3.99002 5.40357 3.82045 5.5286 3.69543C5.65362 3.5704 5.82319 3.50016 6 3.50016Z" fill="#38090D"/>
</svg>
