<svg width="16" height="16" viewBox="0 0 16 16" fill="none" xmlns="http://www.w3.org/2000/svg">
<path d="M7.875 3.125V7.875L11.0417 9.45833" stroke="#626264" stroke-width="1.5" stroke-linecap="round" stroke-linejoin="round"/>
<path d="M15 7.875C15 8.81067 14.8157 9.73717 14.4576 10.6016C14.0996 11.4661 13.5748 12.2515 12.9131 12.9131C12.2515 13.5748 11.4661 14.0996 10.6016 14.4576C9.73717 14.8157 8.81067 15 7.875 15C6.93933 15 6.01283 14.8157 5.14838 14.4576C4.28394 14.0996 3.49848 13.5748 2.83686 12.9131C2.17525 12.2515 1.65042 11.4661 1.29236 10.6016C0.934293 9.73717 0.75 8.81067 0.75 7.875C0.75 5.98533 1.50067 4.17306 2.83686 2.83686C4.17306 1.50067 5.98533 0.75 7.875 0.75C9.76467 0.75 11.5769 1.50067 12.9131 2.83686C14.2493 4.17306 15 5.98533 15 7.875Z" stroke="#626264" stroke-width="1.5" stroke-linecap="round" stroke-linejoin="round"/>
</svg>
